Coordinates
version=1
nRows=13
nColumns=40
inDegrees=yes

Units are S.I. units (second, meters, Newtons, ...)
Angles are in degrees.

endheader
time	pelvis_tilt	pelvis_list	pelvis_rotation	pelvis_tx	pelvis_ty	pelvis_tz	hip_flexion_r	hip_adduction_r	hip_rotation_r	knee_angle_r	knee_angle_r_beta	ankle_angle_r	subtalar_angle_r	mtp_angle_r	hip_flexion_l	hip_adduction_l	hip_rotation_l	knee_angle_l	knee_angle_l_beta	ankle_angle_l	subtalar_angle_l	mtp_angle_l	lumbar_extension	lumbar_bending	lumbar_rotation	arm_flex_r	arm_add_r	arm_rot_r	elbow_flex_r	pro_sup_r	wrist_flex_r	wrist_dev_r	arm_flex_l	arm_add_l	arm_rot_l	elbow_flex_l	pro_sup_l	wrist_flex_l	wrist_dev_l
     31.45000000	     -2.73820300	     -2.45973895	      1.06729686	      0.91808781	      0.92726199	      0.43573432	     27.33610395	     -6.15994128	     -5.56242136	     69.90857522	     69.90857522	      0.95773077	    -18.98164130	      9.13125887	     17.14546173	     -2.40391686	     -2.78563654	     24.98588653	     24.98588653	     12.92218605	    -14.15976830	     -0.90095388	     -9.17752609	      3.02534543	      1.82635939	      8.36689173	    -13.55043845	      0.52312487	     51.69567438	     44.48203499	      0.00000000	      0.00000000	      3.12598123	    -11.86765682	      0.21976112	     43.19621552	     44.84068783	      0.00000000	      0.00000000
     31.46328571	     -2.64599061	     -2.52458297	      0.71115868	      0.91805221	      0.92828198	      0.43553320	     28.30718418	     -5.95809652	     -5.29553205	     69.03667332	     69.03667332	      1.42473002	    -19.01710734	      9.37132878	     16.17716578	     -2.52027949	     -3.14787454	     24.40435424	     24.40435424	     13.23426879	    -13.92310429	     -1.04541878	     -9.34932772	      3.22632490	      2.11395145	      6.42740016	    -13.79366281	      0.69963219	     49.73292722	     44.55095003	      0.00000000	      0.00000000	      3.85597789	    -11.89315367	      0.06706647	     44.17197352	     44.88896565	      0.00000000	      0.00000000
     31.47657143	     -2.58484897	     -2.60041712	      0.38002897	      0.91799335	      0.92919066	      0.43536227	     29.25344618	     -5.70778362	     -5.03941951	     68.04124040	     68.04124040	      2.10884454	    -19.01375087	     10.45664636	     15.25162949	     -2.63362345	     -3.47363214	     23.80956680	     23.80956680	     13.34125320	    -13.79711091	     -1.61027804	     -9.43843548	      3.41555607	      1.60311493	      6.03453150	    -13.25329289	      0.42795364	     44.68521475	     44.81099287	      0.00000000	      0.00000000	      3.62093434	    -12.47973196	      0.32218829	     46.54107724	     44.96499356	      0.00000000	      0.00000000
     31.48985714	     -2.50708223	     -2.67141122	      0.04607932	      0.91794739	      0.93009066	      0.43515778	     30.03168372	     -5.50147159	     -4.88083634	     66.74190829	     66.74190829	      2.48728271	    -19.00607049	     10.56753600	     14.28074616	     -2.70230098	     -3.71753192	     23.16517736	     23.16517736	     13.61984727	    -13.69285226	     -1.59197396	     -9.60795140	      3.64534177	      1.85602109	      4.17095411	    -13.49804959	      0.54857920	     43.00550355	     44.86735619	      0.00000000	      0.00000000	      4.31891125	    -12.52961540	      0.14964870	     47.58537044	     45.01255530	      0.00000000	      0.00000000
     31.50314286	     -2.39961722	     -2.71660432	     -0.30926480	      0.91785529	      0.93089974	      0.43512969	     30.68660878	     -5.26312089	     -4.69169696	     65.20561183	     65.20561183	      2.92021392	    -19.01842932	     10.75639979	     13.33148776	     -2.76707902	     -4.04999463	     22.60637532	     22.60637532	     13.85334602	    -13.55547332	     -1.67323078	     -9.84817692	      3.82473452	      2.20214964	      2.67963765	    -13.64278107	      0.56970600	     40.39889541	     44.97262373	      0.00000000	      0.00000000	      4.92134609	    -12.68239809	      0.09268388	     49.17973285	     45.06131542	      0.00000000	      0.00000000
     31.51642857	     -2.39182963	     -2.82821904	     -0.58873160	      0.91770518	      0.93146005	      0.43519816	     31.30949205	     -5.00484751	     -4.70558550	     63.34852863	     63.34852863	      3.32303764	    -18.96829097	     10.93070450	     12.54127031	     -2.90269577	     -4.31873337	     22.08994190	     22.08994190	     14.00555783	    -13.42495698	     -2.06965359	     -9.90550309	      4.01771295	      1.39506214	      2.94438709	    -13.02541413	      0.05854645	     34.94353233	     45.26905116	      0.00000000	      0.00000000	      4.34151864	    -13.54906480	      0.34983454	     52.08949461	     45.15096498	      0.00000000	      0.00000000
     31.52971429	     -2.40733319	     -2.91318303	     -0.90287063	      0.91758097	      0.93192965	      0.43532905	     31.81292709	     -4.75033379	     -4.73419919	     61.13013956	     61.13013956	      3.66815660	    -18.88181531	     10.82222992	     11.75444036	     -2.99176528	     -4.56301500	     21.54301878	     21.54301878	     14.25340951	    -13.30840130	     -2.09261945	    -10.00427992	      4.22294071	      1.63771198	      1.44281302	    -13.21918296	     -0.00295866	     33.20396653	     45.34787435	      0.00000000	      0.00000000	      4.98470884	    -13.63211840	      0.00517333	     53.35379487	     45.23163994	      0.00000000	      0.00000000
     31.54300000	     -2.43407959	     -3.02938654	     -1.19817208	      0.91746444	      0.93225370	      0.43563328	     32.12695464	     -4.48428810	     -4.92832446	     58.48116592	     58.48116592	      3.71674564	    -18.81019237	      9.63912776	     11.02845060	     -3.14062873	     -4.85299907	     21.07414392	     21.07414392	     14.45507797	    -13.13623817	     -2.33586262	    -10.07416798	      4.44572998	      1.29221171	      1.01061274	    -13.05896540	     -0.46715327	     29.82925405	     45.56256533	      0.00000000	      0.00000000	      4.85663428	    -14.11493003	     -0.35943001	     55.74271165	     45.38284991	      0.00000000	      0.00000000
     31.55628571	     -2.44108598	     -3.18082786	     -1.50775281	      0.91739559	      0.93258479	      0.43609301	     32.28627495	     -4.11541041	     -5.12711221	     55.51940692	     55.51940692	      4.05045963	    -18.60029811	      9.48250153	     10.26241669	     -3.31244932	     -5.07846968	     20.57591756	     20.57591756	     14.66415539	    -13.06706273	     -2.30729108	    -10.23027173	      4.73146045	      1.59608192	     -0.54179891	    -13.31916963	     -0.48982479	     28.62916629	     45.61150457	      0.00000000	      0.00000000	      5.60393830	    -14.20571247	     -0.72044284	     56.87179398	     45.45075244	      0.00000000	      0.00000000
     31.56957143	     -2.52047714	     -3.21407562	     -1.83283957	      0.91742102	      0.93256461	      0.43673717	     32.38333999	     -3.84803725	     -5.34596479	     52.26602104	     52.26602104	      4.18659824	    -18.28334158	      8.44822183	      9.61093503	     -3.38688777	     -5.40712631	     20.16499134	     20.16499134	     14.91760346	    -12.86682710	     -2.45749437	    -10.23584395	      4.81225075	      1.74679409	     -1.84000641	    -13.44537791	     -0.61528284	     27.09455666	     45.69384248	      0.00000000	      0.00000000	      6.09823885	    -14.41394730	     -1.11845362	     58.63837552	     45.54142263	      0.00000000	      0.00000000
     31.58285714	     -2.55952733	     -3.33350107	     -2.15127208	      0.91755321	      0.93258088	      0.43755833	     32.20339684	     -3.45970766	     -5.68577393	     48.62695345	     48.62695345	      4.36635504	    -17.80777126	      7.51124283	      8.91781721	     -3.55481650	     -5.71355987	     19.77539495	     19.77539495	     15.14404275	    -12.77522216	     -2.55207225	    -10.30173767	      5.00633143	      1.85770866	     -3.05641938	    -13.63100289	     -0.72862020	     25.91100996	     45.75756320	      0.00000000	      0.00000000	      6.59006861	    -14.64962093	     -1.54616294	     60.21136847	     45.62352304	      0.00000000	      0.00000000
     31.59614286	     -2.76366710	     -3.40101235	     -2.42918364	      0.91772247	      0.93222449	      0.43844982	     32.08088664	     -3.14513291	     -6.15107984	     44.83476310	     44.83476310	      4.64122805	    -16.92045872	      7.15926288	      8.44225510	     -3.66547670	     -5.93004724	     19.44202875	     19.44202875	     15.38033542	    -12.72756713	     -2.63502099	    -10.14333243	      5.14280886	      1.76101231	     -4.30963799	    -13.81963953	     -0.79613535	     25.13821530	     45.79193928	      0.00000000	      0.00000000	      7.06880612	    -14.91598737	     -1.89070788	     61.27472187	     45.67911964	      0.00000000	      0.00000000
     31.60942857	     -2.75641544	     -3.39938296	     -2.75951086	      0.91831692	      0.93201028	      0.43953014	     31.29132985	     -2.89531029	     -6.78775354	     40.30212975	     40.30212975	      2.89903387	    -16.36547171	      0.80610931	      7.61499788	     -3.71709087	     -6.34792040	     18.95853458	     18.95853458	     15.50778692	    -12.46609537	     -3.12220133	    -10.25459807	      5.15006528	      1.31511905	     -4.79478090	    -13.75356224	     -1.71589715	     23.25521083	     46.03441784	      0.00000000	      0.00000000	      6.48496177	    -15.19454635	     -3.73217458	     64.93011932	     46.00626360	      0.00000000	      0.00000000
